<svg width="21" height="19" viewBox="0 0 21 19" fill="none" xmlns="http://www.w3.org/2000/svg">
<path fill-rule="evenodd" clip-rule="evenodd" d="M19.1221 2.50861L20.537 2.67385L19.901 3.94853C19.5909 4.57014 19.2804 5.19175 18.9696 5.81336C18.9327 5.94502 18.868 6.06044 18.7722 6.21071C18.7322 6.2735 18.5954 6.47323 18.589 6.48282C18.5529 6.53696 18.5262 6.57966 18.507 6.61388V9.00274C18.507 15.1155 12.5912 19 7.00449 19C5.8613 19 4.99274 18.9452 3.99819 18.7282C2.36147 18.371 1.14343 17.661 0.586052 16.4202L0.0122123 15.1427L1.40678 15.0145C2.66837 14.8984 3.7622 14.6581 4.60221 14.3363C2.29608 13.9654 1.00374 12.9525 1.00374 11.0504V10.0502H2.00387C2.22361 10.0502 2.42175 10.0324 2.59889 9.99969C0.868118 8.96486 0.00122192 7.30478 0.00122192 5.0022C0.0010328 4.90406 0.0010328 4.90406 0.000442611 4.79912C-0.00605938 3.63852 0.0562798 3.01837 0.373998 2.22689C0.577621 1.71964 0.871949 1.25005 1.26807 0.819779L2.02278 0L2.75655 0.838581C5.17464 3.60209 7.56497 5.27866 10.0055 5.48146C10.016 2.93144 11.9431 1.00166 14.5063 1.00166C15.7012 1.00166 16.7851 1.45521 17.6369 2.27303C18.1031 2.36883 18.5982 2.44742 19.1221 2.50861ZM16.9109 4.16258L16.6043 4.09315L16.3926 3.8608C15.8806 3.29899 15.238 3.00193 14.5063 3.00193C13.0431 3.00193 12.0057 4.04445 12.0057 5.50226C12.0057 5.74051 11.9996 5.89021 11.9699 6.08697C11.8515 6.87209 11.4111 7.50253 10.5055 7.50253C7.50708 7.50253 4.802 5.89621 2.16418 3.15271C2.0282 3.56609 1.99622 3.99101 2.00068 4.78792C2.00128 4.8945 2.00128 4.8945 2.00149 5.0022C2.00149 7.05048 2.83132 8.17087 4.79611 8.79537L5.4933 9.01697V9.74852C5.4933 10.6356 4.65285 11.4707 3.42315 11.8447C3.98685 12.2724 5.1397 12.5032 7.00484 12.5032H8.00497V13.5033C8.00497 14.9363 6.35848 16.0582 3.87127 16.6441C4.68241 16.8926 5.76243 16.9997 7.00449 16.9997C11.6195 16.9997 16.5067 13.7907 16.5067 9.00274V6.5024C16.5067 6.20858 16.5919 5.95354 16.7334 5.68836C16.7887 5.58468 16.8496 5.48583 16.9248 5.3731C16.939 5.35188 16.9915 5.27497 17.0332 5.2135L17.1124 5.05497C17.2409 4.7981 17.3693 4.54122 17.4976 4.28435C17.2982 4.24657 17.1026 4.20598 16.9109 4.16258Z" fill="white"/>
</svg>
