<svg width="32" height="31" viewBox="0 0 32 31" fill="none" xmlns="http://www.w3.org/2000/svg">
<g clip-path="url(#clip0_68_572)">
<path d="M24.4573 13.4265C24.1349 13.3415 23.8034 13.5296 23.717 13.8466L22.7396 17.433C21.7056 21.227 17.7249 23.4865 13.866 22.4699C10.007 21.4533 7.70876 17.5395 8.74275 13.7456L9.72016 10.1593C9.80657 9.84225 9.61514 9.51643 9.29279 9.43151C8.97034 9.34656 8.63896 9.53466 8.55255 9.85169L7.57514 13.438C6.42123 17.672 8.82415 22.0333 12.9749 23.4432L12.1629 26.4227L9.14317 25.6272C8.82082 25.5423 8.48934 25.7304 8.40294 26.0474C8.31653 26.3644 8.50791 26.6902 8.83031 26.7752L16.0373 28.6738C16.3597 28.7587 16.6912 28.5706 16.7776 28.2536C16.864 27.9366 16.6726 27.6107 16.3502 27.5258L13.3305 26.7303L14.1425 23.7508C18.4543 24.5702 22.7533 21.9744 23.9072 17.7405L24.8846 14.1542C24.9711 13.8372 24.7796 13.5114 24.4573 13.4265Z" fill="white"/>
<path d="M19.4862 3.37805L18.7081 3.17307C16.0392 2.47 13.2862 4.0327 12.5711 6.65661L10.4078 14.5942C9.69266 17.2182 11.2821 19.9248 13.951 20.6279L14.7291 20.8329C17.3979 21.536 20.1509 19.9733 20.866 17.3493L23.0294 9.41172C23.7445 6.78781 22.155 4.08112 19.4862 3.37805ZM21.4558 10.594L19.3395 10.0365C19.017 9.95154 18.6856 10.1396 18.5992 10.4567C18.5128 10.7737 18.7042 11.0995 19.0266 11.1844L21.1429 11.7419L20.7075 13.3396L18.5912 12.7821C18.2687 12.6972 17.9374 12.8853 17.851 13.2023C17.7646 13.5193 17.9559 13.8451 18.2783 13.9301L20.3946 14.4876L19.9591 16.0853L17.8429 15.5278C17.5204 15.4429 17.189 15.631 17.1026 15.948C17.0162 16.265 17.2076 16.5908 17.53 16.6758L19.641 17.2319C19.0211 19.1074 17.0016 20.2012 15.042 19.685L14.2639 19.48C12.3042 18.9638 11.1116 17.0238 11.5285 15.0948L13.6395 15.6509C13.962 15.7358 14.2933 15.5477 14.3797 15.2307C14.4661 14.9137 14.2748 14.5879 13.9524 14.5029L11.8361 13.9454L12.2716 12.3477L14.3878 12.9052C14.7103 12.9901 15.0417 12.802 15.1281 12.485C15.2145 12.168 15.0231 11.8422 14.7007 11.7572L12.5844 11.1997L13.0198 9.60202L15.1361 10.1595C15.4586 10.2445 15.7899 10.0564 15.8763 9.73935C15.9627 9.42233 15.7714 9.09652 15.449 9.01158L13.3327 8.45407L13.7387 6.96422C14.1287 5.53339 15.3174 4.5184 16.707 4.25859L16.2647 5.88134C16.1783 6.19836 16.3697 6.52418 16.6921 6.60911C17.0145 6.69404 17.3459 6.50595 17.4323 6.18893L17.965 4.23421C18.1084 4.25504 19.4553 4.60987 19.5901 4.66231L19.0573 6.61703C18.9709 6.93405 19.1623 7.25985 19.4847 7.3448C19.8071 7.42972 20.1386 7.24164 20.225 6.92462L20.6672 5.30187C21.7385 6.20998 22.2518 7.67321 21.8618 9.10409L21.4558 10.594Z" fill="white"/>
</g>
<defs>
<clipPath id="clip0_68_572">
<rect width="25.716" height="25.3407" fill="white" transform="matrix(0.967008 0.254746 -0.262947 0.96481 6.66327 0)"/>
</clipPath>
</defs>
</svg>
