<svg width="16" height="16" viewBox="0 0 16 16" fill="none" xmlns="http://www.w3.org/2000/svg">
<path fill-rule="evenodd" clip-rule="evenodd" d="M1.43051e-05 8.00036C1.43051e-05 9.34628 0.904295 10.4003 2.39991 10.4003H4.85822L4.83597 10.4608C4.81373 10.521 4.75107 10.6861 4.69022 10.8465L4.69022 10.8465C4.63635 10.9885 4.5839 11.1267 4.56215 11.1851C4.41004 11.5934 4.29905 11.9223 4.20925 12.2481C4.07351 12.7404 3.99984 13.184 3.99984 13.6001C3.99984 14.7777 4.72631 15.509 5.80113 15.822C6.28591 15.9632 6.70788 16.0001 7.19969 16H7.58328L7.82345 15.7009C8.09475 15.363 8.62761 14.7541 9.24195 14.0521L9.24197 14.0521L9.242 14.0521C10.3753 12.757 11.786 11.1451 12.3432 10.3335C12.4878 10.3765 12.6409 10.3995 12.7994 10.3995H14.3994C15.283 10.3995 15.9993 9.68322 15.9993 8.79961V1.59993C15.9993 0.716312 15.283 0 14.3994 0H12.7994C12.2498 0 11.7648 0.277198 11.4768 0.699429C11.2341 0.542465 10.9634 0.41146 10.669 0.306158C9.99521 0.0650711 9.32692 -0.008955 8.7721 0.00118923L3.19987 0.000716209C0.995856 0.000716209 1.43051e-05 3.24572 1.43051e-05 8.00036ZM10.1301 1.81257C10.838 2.06585 11.1995 2.47882 11.1995 3.20057V8.79961V8.80032C11.1995 8.99247 11.164 9.16262 11.0861 9.34431C10.9464 9.67068 9.67805 11.1177 8.47592 12.4892L8.4759 12.4892C7.85546 13.1971 7.25266 13.8848 6.83174 14.388C6.6306 14.3729 6.44103 14.342 6.24843 14.2859C5.79001 14.1524 5.59976 13.9609 5.59976 13.6001C5.59976 13.3469 5.65101 13.0383 5.75164 12.6733C5.82683 12.4005 5.92422 12.1119 6.06141 11.7437C6.08088 11.6914 6.12946 11.5634 6.18112 11.4272L6.18123 11.4269L6.18198 11.4249C6.24468 11.2597 6.3117 11.083 6.33656 11.0158C6.44059 10.7345 6.50912 10.5274 6.556 10.3392C6.75528 9.53921 6.55536 8.80032 5.59976 8.80032H2.39991C1.84695 8.80032 1.59994 8.51242 1.59994 8.00036C1.59994 4.16793 2.38781 1.60064 3.19987 1.60064H8.79962L8.82917 1.60016C9.1793 1.59388 9.67108 1.64835 10.1301 1.81257ZM14.3994 1.59993V8.79961H12.7994V1.59993H14.3994Z" fill="#898F97"/>
</svg>
