<svg width="20" height="20" viewBox="0 0 20 20" fill="none" xmlns="http://www.w3.org/2000/svg">
<path fill-rule="evenodd" clip-rule="evenodd" d="M15.8333 8.33337C15.8333 4.95072 13.968 2.60295 11.5545 1.89813C11.4671 1.67201 11.329 1.46179 11.1412 1.2854C10.4998 0.682699 9.50022 0.682699 8.85876 1.2854C8.67143 1.4614 8.53351 1.67108 8.44609 1.89664C6.02946 2.5984 4.16667 4.94104 4.16667 8.33337C4.16667 10.5283 3.72415 11.7582 2.90497 12.6495C2.768 12.7985 2.39692 13.1399 2.14555 13.3711C2.02663 13.4805 1.9345 13.5653 1.90664 13.5933L1.66667 13.8367V16.6784H6.73998C6.91153 17.5635 7.39174 18.1556 8.26017 18.6855C9.32845 19.3375 10.6715 19.3375 11.7398 18.6855C12.5062 18.2179 13.0201 17.4991 13.2286 16.6784H18.3333V13.8367L18.0934 13.5933C18.0681 13.5677 17.9797 13.4862 17.8642 13.3796L17.8641 13.3796C17.6135 13.1484 17.2352 12.7994 17.0962 12.6475C16.2764 11.752 15.8333 10.5206 15.8333 8.33337ZM11.4473 16.6784H8.48218C8.59992 16.8975 8.80059 17.0628 9.12835 17.2629C9.66356 17.5895 10.3364 17.5895 10.8717 17.2629C11.1195 17.1116 11.3132 16.9115 11.4473 16.6784ZM15.8668 13.7729C16.0422 13.9644 16.418 14.3146 16.6667 14.5433V15.0118H3.33333V14.5437C3.58006 14.3176 3.95703 13.9678 4.13207 13.7773C5.24518 12.5662 5.83333 10.9315 5.83333 8.33337C5.83333 5.18328 7.77731 3.34369 10 3.34369C12.2164 3.34369 14.1667 5.19278 14.1667 8.33337C14.1667 10.9232 14.755 12.5584 15.8668 13.7729Z" fill="white"/>
</svg>
