<svg width="13" height="13" viewBox="0 0 13 13" fill="none" xmlns="http://www.w3.org/2000/svg">
<path fill-rule="evenodd" clip-rule="evenodd" d="M6.5 13C2.91015 13 0 10.0899 0 6.5C0 2.91015 2.91015 0 6.5 0C10.0899 0 13 2.91015 13 6.5C13 10.0899 10.0899 13 6.5 13ZM6.5 11.8182C9.43715 11.8182 11.8182 9.43715 11.8182 6.5C11.8182 3.56285 9.43715 1.18182 6.5 1.18182C3.56285 1.18182 1.18182 3.56285 1.18182 6.5C1.18182 9.43715 3.56285 11.8182 6.5 11.8182ZM9.45455 5.9091H7.09091V2.95455H5.90909V7.09091H9.45455V5.9091Z" fill="#898F97"/>
</svg>
